<svg width="4035" height="729" viewBox="0 0 4035 729" fill="none" xmlns="http://www.w3.org/2000/svg">
<path d="M358.889 297.767C357.338 284.667 351.046 274.497 340.014 267.257C328.982 260.017 315.45 256.397 299.419 256.397C287.697 256.397 277.441 258.293 268.65 262.085C259.945 265.878 253.136 271.092 248.223 277.729C243.396 284.365 240.983 291.907 240.983 300.353C240.983 307.421 242.664 313.497 246.025 318.582C249.473 323.581 253.868 327.761 259.212 331.122C264.556 334.398 270.158 337.112 276.019 339.267C281.88 341.336 287.266 343.016 292.179 344.309L319.07 351.549C325.965 353.359 333.636 355.858 342.082 359.047C350.615 362.236 358.76 366.589 366.517 372.105C374.36 377.535 380.824 384.516 385.909 393.049C390.994 401.581 393.537 412.053 393.537 424.465C393.537 438.772 389.788 451.7 382.289 463.249C374.877 474.799 364.017 483.978 349.71 490.787C335.489 497.595 318.208 501 297.868 501C278.906 501 262.487 497.94 248.611 491.821C234.821 485.701 223.961 477.169 216.032 466.223C208.188 455.277 203.75 442.564 202.716 428.084H235.812C236.674 438.082 240.035 446.356 245.896 452.907C251.843 459.371 259.341 464.197 268.391 467.386C277.527 470.489 287.353 472.041 297.868 472.041C310.106 472.041 321.095 470.058 330.835 466.094C340.574 462.043 348.288 456.44 353.976 449.287C359.665 442.047 362.509 433.6 362.509 423.947C362.509 415.156 360.053 408.002 355.14 402.486C350.227 396.97 343.763 392.489 335.747 389.041C327.732 385.593 319.07 382.577 309.762 379.991L277.182 370.683C256.497 364.736 240.121 356.246 228.055 345.214C215.989 334.182 209.955 319.745 209.955 301.904C209.955 287.08 213.963 274.152 221.979 263.12C230.08 252.001 240.94 243.382 254.558 237.263C268.262 231.058 283.56 227.955 300.453 227.955C317.519 227.955 332.688 231.014 345.961 237.134C359.234 243.167 369.749 251.441 377.506 261.956C385.349 272.471 389.486 284.408 389.917 297.767H358.889ZM521.732 500.483C502.598 500.483 486.093 496.26 472.217 487.813C458.427 479.28 447.783 467.386 440.284 452.131C432.872 436.789 429.166 418.948 429.166 398.608C429.166 378.267 432.872 360.34 440.284 344.826C447.783 329.226 458.211 317.074 471.571 308.369C485.016 299.577 500.702 295.182 518.63 295.182C528.972 295.182 539.185 296.906 549.27 300.353C559.354 303.801 568.533 309.403 576.807 317.16C585.081 324.831 591.674 335.001 596.587 347.671C601.5 360.34 603.956 375.94 603.956 394.471V407.399H450.885V381.025H572.928C572.928 369.821 570.687 359.823 566.206 351.032C561.81 342.241 555.518 335.303 547.33 330.217C539.229 325.132 529.662 322.59 518.63 322.59C506.477 322.59 495.962 325.606 487.085 331.639C478.293 337.587 471.528 345.343 466.787 354.91C462.047 364.477 459.677 374.734 459.677 385.68V403.262C459.677 418.259 462.262 430.972 467.434 441.401C472.691 451.743 479.974 459.629 489.282 465.059C498.591 470.403 509.407 473.075 521.732 473.075C529.748 473.075 536.988 471.954 543.452 469.713C550.002 467.386 555.647 463.939 560.388 459.371C565.128 454.717 568.791 448.942 571.377 442.047L600.853 450.321C597.751 460.319 592.536 469.11 585.21 476.695C577.884 484.193 568.834 490.054 558.061 494.277C547.287 498.414 535.178 500.483 521.732 500.483ZM727.4 500.483C708.784 500.483 692.753 496.087 679.307 487.296C665.862 478.505 655.519 466.395 648.279 450.967C641.04 435.54 637.42 417.914 637.42 398.091C637.42 377.923 641.126 360.125 648.538 344.697C656.036 329.183 666.465 317.074 679.824 308.369C693.27 299.577 708.956 295.182 726.883 295.182C740.846 295.182 753.429 297.767 764.634 302.939C775.838 308.11 785.017 315.35 792.171 324.658C799.325 333.967 803.763 344.826 805.487 357.237H774.976C772.649 348.188 767.478 340.172 759.463 333.191C751.533 326.123 740.846 322.59 727.4 322.59C715.506 322.59 705.078 325.692 696.114 331.898C687.237 338.017 680.298 346.679 675.3 357.884C670.387 369.002 667.93 382.06 667.93 397.057C667.93 412.398 670.344 425.757 675.17 437.134C680.083 448.511 686.978 457.345 695.855 463.637C704.819 469.929 715.334 473.075 727.4 473.075C735.33 473.075 742.527 471.696 748.991 468.938C755.455 466.18 760.928 462.215 765.41 457.044C769.891 451.872 773.08 445.667 774.976 438.427H805.487C803.763 450.149 799.497 460.707 792.688 470.101C785.966 479.41 777.045 486.822 765.927 492.338C754.895 497.768 742.052 500.483 727.4 500.483ZM971.595 415.156V297.767H1002.11V496.346H971.595V462.732H969.526C964.872 472.816 957.632 481.392 947.807 488.459C937.981 495.441 925.57 498.931 910.573 498.931C898.162 498.931 887.13 496.216 877.477 490.787C867.824 485.27 860.239 476.996 854.723 465.964C849.207 454.846 846.449 440.84 846.449 423.947V297.767H876.96V421.879C876.96 436.359 881.011 447.908 889.112 456.527C897.3 465.145 907.729 469.455 920.399 469.455C927.983 469.455 935.697 467.516 943.541 463.637C951.47 459.759 958.106 453.812 963.45 445.796C968.88 437.781 971.595 427.567 971.595 415.156ZM1054.35 496.346V297.767H1083.82V327.761H1085.89C1089.51 317.936 1096.06 309.963 1105.54 303.844C1115.02 297.724 1125.71 294.665 1137.61 294.665C1139.85 294.665 1142.65 294.708 1146.01 294.794C1149.37 294.88 1151.91 295.009 1153.64 295.182V326.21C1152.6 325.951 1150.23 325.563 1146.53 325.046C1142.91 324.443 1139.07 324.141 1135.02 324.141C1125.37 324.141 1116.75 326.167 1109.16 330.217C1101.66 334.182 1095.72 339.698 1091.32 346.766C1087.01 353.747 1084.86 361.719 1084.86 370.683V496.346H1054.35ZM1263.38 500.483C1244.24 500.483 1227.74 496.26 1213.86 487.813C1200.07 479.28 1189.43 467.386 1181.93 452.131C1174.52 436.789 1170.81 418.948 1170.81 398.608C1170.81 378.267 1174.52 360.34 1181.93 344.826C1189.43 329.226 1199.86 317.074 1213.22 308.369C1226.66 299.577 1242.35 295.182 1260.27 295.182C1270.62 295.182 1280.83 296.906 1290.91 300.353C1301 303.801 1310.18 309.403 1318.45 317.16C1326.73 324.831 1333.32 335.001 1338.23 347.671C1343.14 360.34 1345.6 375.94 1345.6 394.471V407.399H1192.53V381.025H1314.57C1314.57 369.821 1312.33 359.823 1307.85 351.032C1303.45 342.241 1297.16 335.303 1288.97 330.217C1280.87 325.132 1271.31 322.59 1260.27 322.59C1248.12 322.59 1237.61 325.606 1228.73 331.639C1219.94 337.587 1213.17 345.343 1208.43 354.91C1203.69 364.477 1201.32 374.734 1201.32 385.68V403.262C1201.32 418.259 1203.91 430.972 1209.08 441.401C1214.34 451.743 1221.62 459.629 1230.93 465.059C1240.24 470.403 1251.05 473.075 1263.38 473.075C1271.39 473.075 1278.63 471.954 1285.1 469.713C1291.65 467.386 1297.29 463.939 1302.03 459.371C1306.77 454.717 1310.44 448.942 1313.02 442.047L1342.5 450.321C1339.4 460.319 1334.18 469.11 1326.85 476.695C1319.53 484.193 1310.48 490.054 1299.71 494.277C1288.93 498.414 1276.82 500.483 1263.38 500.483ZM1463.36 500.483C1446.81 500.483 1432.2 496.303 1419.53 487.942C1406.86 479.496 1396.95 467.602 1389.79 452.26C1382.64 436.833 1379.06 418.604 1379.06 397.574C1379.06 376.716 1382.64 358.616 1389.79 343.275C1396.95 327.933 1406.9 316.082 1419.66 307.722C1432.42 299.362 1447.15 295.182 1463.87 295.182C1476.8 295.182 1487.02 297.336 1494.51 301.646C1502.1 305.869 1507.87 310.696 1511.84 316.126C1515.89 321.469 1519.03 325.865 1521.28 329.312H1523.86V231.575H1554.37V496.346H1524.9V465.835H1521.28C1519.03 469.455 1515.85 474.023 1511.71 479.539C1507.57 484.969 1501.67 489.838 1494 494.148C1486.33 498.371 1476.11 500.483 1463.36 500.483ZM1467.49 473.075C1479.73 473.075 1490.08 469.886 1498.52 463.508C1506.97 457.044 1513.39 448.123 1517.78 436.746C1522.18 425.283 1524.38 412.053 1524.38 397.057C1524.38 382.232 1522.22 369.261 1517.91 358.142C1513.6 346.938 1507.23 338.233 1498.78 332.027C1490.33 325.736 1479.9 322.59 1467.49 322.59C1454.57 322.59 1443.79 325.908 1435.17 332.544C1426.64 339.095 1420.22 348.015 1415.91 359.306C1411.69 370.511 1409.58 383.094 1409.58 397.057C1409.58 411.191 1411.73 424.034 1416.04 435.583C1420.43 447.046 1426.9 456.182 1435.43 462.991C1444.05 469.713 1454.74 473.075 1467.49 473.075ZM1713.74 496.346V231.575H1744.25V329.312H1746.83C1749.07 325.865 1752.18 321.469 1756.14 316.126C1760.19 310.696 1765.97 305.869 1773.46 301.646C1781.05 297.336 1791.31 295.182 1804.23 295.182C1820.95 295.182 1835.69 299.362 1848.45 307.722C1861.2 316.082 1871.16 327.933 1878.31 343.275C1885.47 358.616 1889.04 376.716 1889.04 397.574C1889.04 418.604 1885.47 436.833 1878.31 452.26C1871.16 467.602 1861.25 479.496 1848.58 487.942C1835.91 496.303 1821.3 500.483 1804.75 500.483C1792 500.483 1781.78 498.371 1774.11 494.148C1766.44 489.838 1760.54 484.969 1756.4 479.539C1752.26 474.023 1749.07 469.455 1746.83 465.835H1743.21V496.346H1713.74ZM1743.73 397.057C1743.73 412.053 1745.93 425.283 1750.32 436.746C1754.72 448.123 1761.14 457.044 1769.59 463.508C1778.03 469.886 1788.38 473.075 1800.61 473.075C1813.37 473.075 1824.01 469.713 1832.55 462.991C1841.17 456.182 1847.63 447.046 1851.94 435.583C1856.33 424.034 1858.53 411.191 1858.53 397.057C1858.53 383.094 1856.38 370.511 1852.07 359.306C1847.85 348.015 1841.42 339.095 1832.81 332.544C1824.27 325.908 1813.54 322.59 1800.61 322.59C1788.2 322.59 1777.77 325.736 1769.33 332.027C1760.88 338.233 1754.5 346.938 1750.19 358.142C1745.88 369.261 1743.73 382.232 1743.73 397.057ZM1944.61 570.813C1939.44 570.813 1934.83 570.382 1930.78 569.52C1926.73 568.744 1923.93 567.968 1922.38 567.193L1930.13 540.302C1937.55 542.198 1944.1 542.887 1949.79 542.37C1955.47 541.853 1960.52 539.311 1964.91 534.743C1969.39 530.261 1973.49 522.978 1977.19 512.894L1982.88 497.38L1909.45 297.767H1942.55L1997.36 456.009H1999.43L2054.25 297.767H2087.34L2003.05 525.305C1999.26 535.561 1994.56 544.051 1988.96 550.774C1983.36 557.583 1976.85 562.625 1969.44 565.9C1962.11 569.175 1953.84 570.813 1944.61 570.813Z" fill="white"/>
<path fill-rule="evenodd" clip-rule="evenodd" d="M3240.06 212.36H3243.39H3278.26H3281.59V215.696V392.302V434.641V486.942V490.277H3278.26H3243.39H3240.06V486.942V215.696V212.36ZM2562.25 452.498V306.624H2606.46V268.71H2558.65C2561.46 265.196 2563.72 261.265 2565.32 257.058C2568.32 249.431 2569.92 239.669 2569.77 226.549V212.362H2529.74V227.038C2530.01 235.368 2528.32 243.645 2524.83 251.21C2519.6 261.928 2508.46 273.78 2484.25 279.473L2481.67 280.096V306.624H2520.31V462.46C2520.34 469.833 2523.27 476.897 2528.49 482.113C2533.7 487.328 2540.76 490.272 2548.13 490.301H2607.1V452.498H2562.27H2562.25ZM2903.36 305.512C2919.5 282.474 2940.94 268.998 2966.87 268.998H2987.59V309.292H2962.31C2944.61 309.292 2930.38 315.051 2920.3 327.193C2910.23 339.334 2904.2 358.28 2904.2 385.253V490.3H2861.82V268.998H2903.36V305.512ZM3807.63 268.998H3848.17L3852.97 269.154L3851.22 273.601L3745.37 548.005L3742.79 547.004L3743.1 547.138L3745.32 548.005C3742.33 555.107 3737.35 561.193 3730.97 565.532C3724.6 569.872 3717.12 572.279 3709.41 572.465H3662.49V535.063H3707.96L3727 486.92L3644.03 273.446L3642.28 268.998H3688.97L3689.77 271.222L3748.15 434.263L3806.85 271.222L3807.63 268.998ZM2777.62 268.998H2780.95H2819.56V490.367H2779.69V463.06C2763.94 484.986 2740.79 495.348 2712.44 495.348C2683.58 495.348 2663.85 486.898 2651.76 472.177C2639.66 457.456 2635.21 436.909 2635.21 413.538V268.998H2677.17V417.608C2677.17 429.971 2681.07 439.867 2687.87 446.649C2694.67 453.431 2704.66 457.456 2717.42 457.456C2738.01 457.456 2752.87 450.63 2762.72 439.422C2772.57 428.215 2777.62 412.271 2777.62 393.525V268.998ZM3536.17 264.017C3504.8 264.017 3478.94 275.58 3460.97 296.038C3443 316.496 3433.19 345.404 3433.19 379.849C3433.19 414.293 3443.36 443.402 3461.61 463.66C3479.87 483.917 3506.09 495.28 3537.42 495.28C3562.35 495.28 3583.76 488.12 3600.51 474.934C3617.25 461.747 3629.1 442.735 3635.28 419.341L3636.4 415.138H3593.19L3592.39 417.362C3582.87 443.579 3563.28 457.922 3537.42 457.922C3518.83 457.922 3504.51 450.94 3494.32 439.243C3484.7 428.125 3478.65 412.693 3476.42 394.436H3636.71L3637.04 391.478C3637.4 387.628 3637.54 383.76 3637.46 379.893C3637.46 345.493 3628.08 316.518 3610.58 296.104C3593.08 275.691 3567.55 264.017 3536.17 264.017ZM3477.89 356.166C3480.85 340.6 3486.99 327.103 3496.08 317.496C3501.23 312.102 3507.45 307.847 3514.35 305.005C3521.24 302.163 3528.65 300.798 3536.11 300.997C3543.2 300.82 3550.25 302.101 3556.83 304.759C3563.41 307.417 3569.38 311.396 3574.35 316.451C3583.47 325.768 3589.92 339.222 3593.12 356.166H3477.89ZM3125.01 264.017C3096.66 264.017 3073.51 274.379 3057.77 296.305V268.998H3017.9V490.299H3059.83V365.773C3059.83 347.027 3064.88 331.083 3074.73 319.853C3084.58 308.624 3099.44 301.842 3120.03 301.842C3132.79 301.842 3142.78 305.866 3149.58 312.649C3156.39 319.431 3160.28 329.326 3160.28 341.69V490.322H3202.24V345.782C3202.24 322.433 3197.79 301.886 3185.7 287.165C3173.6 272.444 3153.87 264.017 3125.01 264.017ZM3445.73 269.568L3335.58 379.776L3445.65 489.926L3390.07 489.808L3309.65 409.35C3301.81 401.508 3297.41 390.874 3297.41 379.786C3297.41 368.699 3301.81 358.065 3309.65 350.223L3390.26 269.568H3445.73Z" fill="white"/>
<g clip-path="url(#clip0_275_1417)">
<path d="M2304.72 340.132L2377.86 500.518H2214.7L2287.84 340.132C2288.58 338.514 2289.77 337.144 2291.26 336.183C2292.76 335.223 2294.5 334.712 2296.28 334.712C2298.06 334.712 2299.8 335.223 2301.29 336.183C2302.79 337.144 2303.98 338.514 2304.72 340.132V340.132Z" fill="white"/>
<path d="M2296.26 315.273C2324.64 315.273 2347.65 292.235 2347.65 263.816C2347.65 235.397 2324.64 212.358 2296.26 212.358C2267.89 212.358 2244.88 235.397 2244.88 263.816C2244.88 292.235 2267.89 315.273 2296.26 315.273Z" fill="white"/>
</g>
<rect x="15.1692" y="15.1619" width="4004.66" height="697.782" rx="75.8459" stroke="white" stroke-width="30.3384"/>
<defs>
<clipPath id="clip0_275_1417">
<rect width="163.15" height="288.16" fill="white" transform="translate(2214.7 212.361)"/>
</clipPath>
</defs>
</svg>
