<svg width="4035" height="729" viewBox="0 0 4035 729" fill="none" xmlns="http://www.w3.org/2000/svg">
<path d="M358.889 297.775C357.338 284.674 351.046 274.504 340.014 267.264C328.982 260.024 315.45 256.404 299.419 256.404C287.697 256.404 277.441 258.3 268.65 262.093C259.945 265.885 253.136 271.099 248.223 277.736C243.396 284.372 240.983 291.914 240.983 300.36C240.983 307.428 242.664 313.504 246.025 318.589C249.473 323.588 253.868 327.768 259.212 331.13C264.556 334.405 270.158 337.12 276.019 339.274C281.88 341.343 287.266 343.024 292.179 344.317L319.07 351.556C325.965 353.366 333.636 355.866 342.082 359.055C350.615 362.244 358.76 366.596 366.517 372.112C374.36 377.542 380.824 384.523 385.909 393.056C390.994 401.589 393.537 412.061 393.537 424.472C393.537 438.779 389.788 451.707 382.289 463.257C374.877 474.806 364.017 483.985 349.71 490.794C335.489 497.603 318.208 501.007 297.868 501.007C278.906 501.007 262.487 497.948 248.611 491.828C234.821 485.709 223.961 477.176 216.032 466.23C208.188 455.284 203.75 442.571 202.716 428.092H235.812C236.674 438.09 240.035 446.364 245.896 452.914C251.843 459.378 259.341 464.205 268.391 467.394C277.527 470.496 287.353 472.048 297.868 472.048C310.106 472.048 321.095 470.066 330.835 466.101C340.574 462.05 348.288 456.448 353.976 449.294C359.665 442.054 362.509 433.608 362.509 423.955C362.509 415.163 360.053 408.01 355.14 402.494C350.227 396.978 343.763 392.496 335.747 389.048C327.732 385.601 319.07 382.584 309.762 379.999L277.182 370.69C256.497 364.743 240.121 356.254 228.055 345.222C215.989 334.189 209.955 319.753 209.955 301.912C209.955 287.087 213.963 274.159 221.979 263.127C230.08 252.009 240.94 243.39 254.558 237.27C268.262 231.065 283.56 227.962 300.453 227.962C317.519 227.962 332.688 231.022 345.961 237.141C359.234 243.174 369.749 251.448 377.506 261.963C385.349 272.478 389.486 284.416 389.917 297.775H358.889ZM521.732 500.49C502.598 500.49 486.093 496.267 472.217 487.82C458.427 479.288 447.783 467.394 440.284 452.138C432.872 436.797 429.166 418.956 429.166 398.615C429.166 378.275 432.872 360.348 440.284 344.834C447.783 329.234 458.211 317.081 471.571 308.376C485.016 299.585 500.702 295.189 518.63 295.189C528.972 295.189 539.185 296.913 549.27 300.36C559.354 303.808 568.533 309.41 576.807 317.167C585.081 324.838 591.674 335.008 596.587 347.678C601.5 360.348 603.956 375.948 603.956 394.478V407.407H450.885V381.033H572.928C572.928 369.828 570.687 359.83 566.206 351.039C561.81 342.248 555.518 335.31 547.33 330.225C539.229 325.14 529.662 322.597 518.63 322.597C506.477 322.597 495.962 325.614 487.085 331.647C478.293 337.594 471.528 345.351 466.787 354.918C462.047 364.485 459.677 374.741 459.677 385.687V403.269C459.677 418.266 462.262 430.979 467.434 441.408C472.691 451.75 479.974 459.637 489.282 465.067C498.591 470.41 509.407 473.082 521.732 473.082C529.748 473.082 536.988 471.962 543.452 469.721C550.002 467.394 555.647 463.946 560.388 459.378C565.128 454.724 568.791 448.949 571.377 442.054L600.853 450.328C597.751 460.326 592.536 469.117 585.21 476.702C577.884 484.2 568.834 490.061 558.061 494.285C547.287 498.422 535.178 500.49 521.732 500.49ZM727.4 500.49C708.784 500.49 692.753 496.094 679.307 487.303C665.862 478.512 655.519 466.403 648.279 450.975C641.04 435.547 637.42 417.921 637.42 398.098C637.42 377.93 641.126 360.132 648.538 344.704C656.036 329.19 666.465 317.081 679.824 308.376C693.27 299.585 708.956 295.189 726.883 295.189C740.846 295.189 753.429 297.775 764.634 302.946C775.838 308.117 785.017 315.357 792.171 324.666C799.325 333.974 803.763 344.834 805.487 357.245H774.976C772.649 348.195 767.478 340.179 759.463 333.198C751.533 326.131 740.846 322.597 727.4 322.597C715.506 322.597 705.078 325.7 696.114 331.905C687.237 338.025 680.298 346.687 675.3 357.891C670.387 369.01 667.93 382.067 667.93 397.064C667.93 412.405 670.344 425.765 675.17 437.142C680.083 448.518 686.978 457.353 695.855 463.644C704.819 469.936 715.334 473.082 727.4 473.082C735.33 473.082 742.527 471.703 748.991 468.945C755.455 466.187 760.928 462.222 765.41 457.051C769.891 451.88 773.08 445.674 774.976 438.434H805.487C803.763 450.156 799.497 460.714 792.688 470.109C785.966 479.417 777.045 486.829 765.927 492.345C754.895 497.775 742.052 500.49 727.4 500.49ZM971.595 415.163V297.775H1002.11V496.353H971.595V462.74H969.526C964.872 472.824 957.632 481.399 947.807 488.467C937.981 495.448 925.57 498.939 910.573 498.939C898.162 498.939 887.13 496.224 877.477 490.794C867.824 485.278 860.239 477.004 854.723 465.972C849.207 454.853 846.449 440.848 846.449 423.955V297.775H876.96V421.886C876.96 436.366 881.011 447.915 889.112 456.534C897.3 465.153 907.729 469.462 920.399 469.462C927.983 469.462 935.697 467.523 943.541 463.644C951.47 459.766 958.106 453.819 963.45 445.803C968.88 437.788 971.595 427.575 971.595 415.163ZM1054.35 496.353V297.775H1083.82V327.768H1085.89C1089.51 317.943 1096.06 309.97 1105.54 303.851C1115.02 297.732 1125.71 294.672 1137.61 294.672C1139.85 294.672 1142.65 294.715 1146.01 294.801C1149.37 294.887 1151.91 295.017 1153.64 295.189V326.217C1152.6 325.958 1150.23 325.571 1146.53 325.053C1142.91 324.45 1139.07 324.148 1135.02 324.148C1125.37 324.148 1116.75 326.174 1109.16 330.225C1101.66 334.189 1095.72 339.705 1091.32 346.773C1087.01 353.754 1084.86 361.727 1084.86 370.69V496.353H1054.35ZM1263.38 500.49C1244.24 500.49 1227.74 496.267 1213.86 487.82C1200.07 479.288 1189.43 467.394 1181.93 452.138C1174.52 436.797 1170.81 418.956 1170.81 398.615C1170.81 378.275 1174.52 360.348 1181.93 344.834C1189.43 329.234 1199.86 317.081 1213.22 308.376C1226.66 299.585 1242.35 295.189 1260.27 295.189C1270.62 295.189 1280.83 296.913 1290.91 300.36C1301 303.808 1310.18 309.41 1318.45 317.167C1326.73 324.838 1333.32 335.008 1338.23 347.678C1343.14 360.348 1345.6 375.948 1345.6 394.478V407.407H1192.53V381.033H1314.57C1314.57 369.828 1312.33 359.83 1307.85 351.039C1303.45 342.248 1297.16 335.31 1288.97 330.225C1280.87 325.14 1271.31 322.597 1260.27 322.597C1248.12 322.597 1237.61 325.614 1228.73 331.647C1219.94 337.594 1213.17 345.351 1208.43 354.918C1203.69 364.485 1201.32 374.741 1201.32 385.687V403.269C1201.32 418.266 1203.91 430.979 1209.08 441.408C1214.34 451.75 1221.62 459.637 1230.93 465.067C1240.24 470.41 1251.05 473.082 1263.38 473.082C1271.39 473.082 1278.63 471.962 1285.1 469.721C1291.65 467.394 1297.29 463.946 1302.03 459.378C1306.77 454.724 1310.44 448.949 1313.02 442.054L1342.5 450.328C1339.4 460.326 1334.18 469.117 1326.85 476.702C1319.53 484.2 1310.48 490.061 1299.71 494.285C1288.93 498.422 1276.82 500.49 1263.38 500.49ZM1463.36 500.49C1446.81 500.49 1432.2 496.31 1419.53 487.95C1406.86 479.503 1396.95 467.609 1389.79 452.268C1382.64 436.84 1379.06 418.611 1379.06 397.581C1379.06 376.723 1382.64 358.624 1389.79 343.282C1396.95 327.941 1406.9 316.09 1419.66 307.73C1432.42 299.369 1447.15 295.189 1463.87 295.189C1476.8 295.189 1487.02 297.344 1494.51 301.653C1502.1 305.876 1507.87 310.703 1511.84 316.133C1515.89 321.477 1519.03 325.872 1521.28 329.32H1523.86V231.582H1554.37V496.353H1524.9V465.842H1521.28C1519.03 469.462 1515.85 474.03 1511.71 479.546C1507.57 484.976 1501.67 489.846 1494 494.155C1486.33 498.378 1476.11 500.49 1463.36 500.49ZM1467.49 473.082C1479.73 473.082 1490.08 469.893 1498.52 463.515C1506.97 457.051 1513.39 448.131 1517.78 436.754C1522.18 425.291 1524.38 412.061 1524.38 397.064C1524.38 382.239 1522.22 369.268 1517.91 358.15C1513.6 346.945 1507.23 338.24 1498.78 332.035C1490.33 325.743 1479.9 322.597 1467.49 322.597C1454.57 322.597 1443.79 325.915 1435.17 332.552C1426.64 339.102 1420.22 348.023 1415.91 359.313C1411.69 370.518 1409.58 383.101 1409.58 397.064C1409.58 411.199 1411.73 424.041 1416.04 435.59C1420.43 447.053 1426.9 456.189 1435.43 462.998C1444.05 469.721 1454.74 473.082 1467.49 473.082ZM1713.74 496.353V231.582H1744.25V329.32H1746.83C1749.07 325.872 1752.18 321.477 1756.14 316.133C1760.19 310.703 1765.97 305.876 1773.46 301.653C1781.05 297.344 1791.31 295.189 1804.23 295.189C1820.95 295.189 1835.69 299.369 1848.45 307.73C1861.2 316.09 1871.16 327.941 1878.31 343.282C1885.47 358.624 1889.04 376.723 1889.04 397.581C1889.04 418.611 1885.47 436.84 1878.31 452.268C1871.16 467.609 1861.25 479.503 1848.58 487.95C1835.91 496.31 1821.3 500.49 1804.75 500.49C1792 500.49 1781.78 498.378 1774.11 494.155C1766.44 489.846 1760.54 484.976 1756.4 479.546C1752.26 474.03 1749.07 469.462 1746.83 465.842H1743.21V496.353H1713.74ZM1743.73 397.064C1743.73 412.061 1745.93 425.291 1750.32 436.754C1754.72 448.131 1761.14 457.051 1769.59 463.515C1778.03 469.893 1788.38 473.082 1800.61 473.082C1813.37 473.082 1824.01 469.721 1832.55 462.998C1841.17 456.189 1847.63 447.053 1851.94 435.59C1856.33 424.041 1858.53 411.199 1858.53 397.064C1858.53 383.101 1856.38 370.518 1852.07 359.313C1847.85 348.023 1841.42 339.102 1832.81 332.552C1824.27 325.915 1813.54 322.597 1800.61 322.597C1788.2 322.597 1777.77 325.743 1769.33 332.035C1760.88 338.24 1754.5 346.945 1750.19 358.15C1745.88 369.268 1743.73 382.239 1743.73 397.064ZM1944.61 570.82C1939.44 570.82 1934.83 570.389 1930.78 569.527C1926.73 568.751 1923.93 567.976 1922.38 567.2L1930.13 540.309C1937.55 542.205 1944.1 542.895 1949.79 542.378C1955.47 541.861 1960.52 539.318 1964.91 534.75C1969.39 530.268 1973.49 522.985 1977.19 512.901L1982.88 497.387L1909.45 297.775H1942.55L1997.36 456.017H1999.43L2054.25 297.775H2087.34L2003.05 525.312C1999.26 535.569 1994.56 544.058 1988.96 550.781C1983.36 557.59 1976.85 562.632 1969.44 565.907C1962.11 569.182 1953.84 570.82 1944.61 570.82Z" fill="#A2A7AE"/>
<path fill-rule="evenodd" clip-rule="evenodd" d="M3240.06 212.369H3243.39H3278.26H3281.6V215.704V392.31V434.649V486.95V490.286H3278.26H3243.39H3240.06V486.95V215.704V212.369ZM2562.25 452.506V306.632H2606.46V268.718H2558.65C2561.47 265.203 2563.72 261.272 2565.32 257.065C2568.32 249.438 2569.93 239.676 2569.77 226.557V212.37H2529.74V227.046C2530.01 235.375 2528.33 243.652 2524.83 251.217C2519.6 261.935 2508.46 273.788 2484.25 279.48L2481.67 280.103V306.632H2520.31V462.468C2520.34 469.841 2523.28 476.905 2528.49 482.12C2533.7 487.336 2540.76 490.279 2548.13 490.308H2607.11V452.506H2562.28H2562.25ZM2903.36 305.519C2919.5 282.482 2940.94 269.006 2966.87 269.006H2987.59V309.3H2962.31C2944.61 309.3 2930.38 315.059 2920.3 327.2C2910.23 339.342 2904.2 358.288 2904.2 385.261V490.308H2861.82V269.006H2903.36V305.519ZM3807.63 269.006H3848.17L3852.97 269.162L3851.22 273.609L3745.37 548.013L3742.79 547.012L3743.1 547.145L3745.32 548.013C3742.33 555.115 3737.35 561.201 3730.98 565.54C3724.61 569.879 3717.12 572.287 3709.41 572.473H3662.49V535.071H3707.97L3727 486.928L3644.03 273.454L3642.28 269.006H3688.98L3689.78 271.23L3748.15 434.271L3806.85 271.23L3807.63 269.006ZM2777.62 269.006H2780.95H2819.56V490.375H2779.69V463.068C2763.94 484.993 2740.79 495.356 2712.44 495.356C2683.58 495.356 2663.85 486.906 2651.76 472.185C2639.66 457.464 2635.21 436.917 2635.21 413.546V269.006H2677.17V417.615C2677.17 429.979 2681.07 439.875 2687.87 446.657C2694.68 453.439 2704.66 457.464 2717.42 457.464C2738.01 457.464 2752.87 450.637 2762.72 439.43C2772.57 428.223 2777.62 412.279 2777.62 393.533V269.006ZM3536.17 264.024C3504.8 264.024 3478.94 275.588 3460.97 296.046C3443 316.503 3433.2 345.411 3433.2 379.856C3433.2 414.301 3443.36 443.41 3461.61 463.667C3479.87 483.925 3506.09 495.288 3537.42 495.288C3562.35 495.288 3583.76 488.128 3600.51 474.941C3617.25 461.755 3629.1 442.742 3635.28 419.349L3636.4 415.146H3593.19L3592.39 417.37C3582.87 443.587 3563.28 457.93 3537.42 457.93C3518.83 457.93 3504.51 450.948 3494.32 439.251C3484.7 428.133 3478.65 412.7 3476.42 394.444H3636.71L3637.04 391.486C3637.4 387.635 3637.54 383.768 3637.46 379.901C3637.46 345.5 3628.08 316.526 3610.58 296.112C3593.08 275.699 3567.55 264.024 3536.17 264.024ZM3477.89 356.174C3480.85 340.608 3486.99 327.111 3496.08 317.504C3501.23 312.11 3507.45 307.855 3514.35 305.013C3521.24 302.171 3528.65 300.806 3536.11 301.004C3543.2 300.828 3550.26 302.108 3556.83 304.767C3563.41 307.425 3569.38 311.404 3574.36 316.459C3583.47 325.776 3589.92 339.229 3593.12 356.174H3477.89ZM3125.01 264.024C3096.66 264.024 3073.51 274.387 3057.77 296.312V269.005H3017.9V490.307H3059.84V365.78C3059.84 347.035 3064.88 331.091 3074.73 319.861C3084.59 308.632 3099.44 301.849 3120.03 301.849C3132.8 301.849 3142.78 305.874 3149.58 312.656C3156.39 319.439 3160.28 329.334 3160.28 341.698V490.329H3202.24V345.789C3202.24 322.441 3197.79 301.894 3185.7 287.173C3173.6 272.452 3153.88 264.024 3125.01 264.024ZM3445.73 269.577L3335.58 379.786L3445.65 489.935L3390.07 489.817L3309.65 409.359C3301.81 401.517 3297.41 390.883 3297.41 379.795C3297.41 368.708 3301.81 358.074 3309.65 350.232L3390.26 269.577H3445.73Z" fill="#72767B"/>
<g clip-path="url(#clip0_275_1394)">
<path d="M2304.72 340.143L2377.86 500.53H2214.7L2287.84 340.143C2288.58 338.525 2289.77 337.155 2291.26 336.194C2292.76 335.234 2294.5 334.723 2296.28 334.723C2298.06 334.723 2299.8 335.234 2301.29 336.194C2302.79 337.155 2303.98 338.525 2304.72 340.143V340.143Z" fill="#72767B"/>
<path d="M2296.26 315.283C2324.64 315.283 2347.65 292.245 2347.65 263.826C2347.65 235.407 2324.64 212.369 2296.26 212.369C2267.89 212.369 2244.88 235.407 2244.88 263.826C2244.88 292.245 2267.89 315.283 2296.26 315.283Z" fill="#72767B"/>
</g>
<rect x="15.1692" y="15.1692" width="4004.66" height="697.782" rx="75.8459" stroke="#A2A7AE" stroke-width="30.3384"/>
<defs>
<clipPath id="clip0_275_1394">
<rect width="163.15" height="288.16" fill="white" transform="translate(2214.7 212.371)"/>
</clipPath>
</defs>
</svg>
