<svg width="4035" height="729" viewBox="0 0 4035 729" fill="none" xmlns="http://www.w3.org/2000/svg">
<path d="M358.889 297.94C357.338 284.84 351.046 274.669 340.014 267.43C328.982 260.19 315.45 256.57 299.419 256.57C287.697 256.57 277.441 258.466 268.65 262.258C259.945 266.051 253.136 271.265 248.223 277.901C243.396 284.538 240.983 292.079 240.983 300.526C240.983 307.593 242.664 313.67 246.025 318.755C249.473 323.754 253.868 327.934 259.212 331.295C264.556 334.57 270.158 337.285 276.019 339.44C281.88 341.509 287.266 343.189 292.179 344.482L319.07 351.722C325.965 353.532 333.636 356.031 342.082 359.22C350.615 362.409 358.76 366.762 366.517 372.278C374.36 377.708 380.824 384.689 385.909 393.222C390.994 401.754 393.537 412.226 393.537 424.637C393.537 438.945 389.788 451.873 382.289 463.422C374.877 474.971 364.017 484.151 349.71 490.959C335.489 497.768 318.208 501.173 297.868 501.173C278.906 501.173 262.487 498.113 248.611 491.994C234.821 485.874 223.961 477.342 216.032 466.396C208.188 455.45 203.75 442.737 202.716 428.257H235.812C236.674 438.255 240.035 446.529 245.896 453.08C251.843 459.544 259.341 464.37 268.391 467.559C277.527 470.662 287.353 472.213 297.868 472.213C310.106 472.213 321.095 470.231 330.835 466.266C340.574 462.216 348.288 456.613 353.976 449.46C359.665 442.22 362.509 433.773 362.509 424.12C362.509 415.329 360.053 408.175 355.14 402.659C350.227 397.143 343.763 392.661 335.747 389.214C327.732 385.766 319.07 382.75 309.762 380.164L277.182 370.856C256.497 364.909 240.121 356.419 228.055 345.387C215.989 334.355 209.955 319.918 209.955 302.077C209.955 287.253 213.963 274.325 221.979 263.293C230.08 252.174 240.94 243.555 254.558 237.436C268.262 231.23 283.56 228.128 300.453 228.128C317.519 228.128 332.688 231.187 345.961 237.307C359.234 243.34 369.749 251.614 377.506 262.129C385.349 272.644 389.486 284.581 389.917 297.94H358.889ZM521.732 500.656C502.598 500.656 486.093 496.432 472.217 487.986C458.427 479.453 447.783 467.559 440.284 452.304C432.872 436.962 429.166 419.121 429.166 398.781C429.166 378.44 432.872 360.513 440.284 344.999C447.783 329.399 458.211 317.246 471.571 308.541C485.016 299.75 500.702 295.355 518.63 295.355C528.972 295.355 539.185 297.078 549.27 300.526C559.354 303.973 568.533 309.576 576.807 317.333C585.081 325.003 591.674 335.174 596.587 347.843C601.5 360.513 603.956 376.113 603.956 394.644V407.572H450.885V381.198H572.928C572.928 369.994 570.687 359.996 566.206 351.205C561.81 342.414 555.518 335.475 547.33 330.39C539.229 325.305 529.662 322.763 518.63 322.763C506.477 322.763 495.962 325.779 487.085 331.812C478.293 337.759 471.528 345.516 466.787 355.083C462.047 364.65 459.677 374.907 459.677 385.853V403.435C459.677 418.432 462.262 431.145 467.434 441.573C472.691 451.916 479.974 459.802 489.282 465.232C498.591 470.576 509.407 473.248 521.732 473.248C529.748 473.248 536.988 472.127 543.452 469.886C550.002 467.559 555.647 464.112 560.388 459.544C565.128 454.89 568.791 449.115 571.377 442.22L600.853 450.494C597.751 460.492 592.536 469.283 585.21 476.868C577.884 484.366 568.834 490.227 558.061 494.45C547.287 498.587 535.178 500.656 521.732 500.656ZM727.4 500.656C708.784 500.656 692.753 496.26 679.307 487.469C665.862 478.678 655.519 466.568 648.279 451.14C641.04 435.713 637.42 418.087 637.42 398.264C637.42 378.096 641.126 360.298 648.538 344.87C656.036 329.356 666.465 317.246 679.824 308.541C693.27 299.75 708.956 295.355 726.883 295.355C740.846 295.355 753.429 297.94 764.634 303.112C775.838 308.283 785.017 315.523 792.171 324.831C799.325 334.139 803.763 344.999 805.487 357.41H774.976C772.649 348.361 767.478 340.345 759.463 333.364C751.533 326.296 740.846 322.763 727.4 322.763C715.506 322.763 705.078 325.865 696.114 332.071C687.237 338.19 680.298 346.852 675.3 358.057C670.387 369.175 667.93 382.233 667.93 397.229C667.93 412.571 670.344 425.93 675.17 437.307C680.083 448.684 686.978 457.518 695.855 463.81C704.819 470.102 715.334 473.248 727.4 473.248C735.33 473.248 742.527 471.869 748.991 469.111C755.455 466.353 760.928 462.388 765.41 457.217C769.891 452.045 773.08 445.84 774.976 438.6H805.487C803.763 450.322 799.497 460.88 792.688 470.274C785.966 479.583 777.045 486.995 765.927 492.511C754.895 497.941 742.052 500.656 727.4 500.656ZM971.595 415.329V297.94H1002.11V496.519H971.595V462.905H969.526C964.872 472.989 957.632 481.565 947.807 488.632C937.981 495.614 925.57 499.104 910.573 499.104C898.162 499.104 887.13 496.389 877.477 490.959C867.824 485.443 860.239 477.169 854.723 466.137C849.207 455.019 846.449 441.013 846.449 424.12V297.94H876.96V422.052C876.96 436.531 881.011 448.081 889.112 456.699C897.3 465.318 907.729 469.628 920.399 469.628C927.983 469.628 935.697 467.689 943.541 463.81C951.47 459.932 958.106 453.985 963.45 445.969C968.88 437.953 971.595 427.74 971.595 415.329ZM1054.35 496.519V297.94H1083.82V327.934H1085.89C1089.51 318.108 1096.06 310.136 1105.54 304.017C1115.02 297.897 1125.71 294.837 1137.61 294.837C1139.85 294.837 1142.65 294.881 1146.01 294.967C1149.37 295.053 1151.91 295.182 1153.64 295.355V326.382C1152.6 326.124 1150.23 325.736 1146.53 325.219C1142.91 324.616 1139.07 324.314 1135.02 324.314C1125.37 324.314 1116.75 326.339 1109.16 330.39C1101.66 334.355 1095.72 339.871 1091.32 346.938C1087.01 353.92 1084.86 361.892 1084.86 370.856V496.519H1054.35ZM1263.38 500.656C1244.24 500.656 1227.74 496.432 1213.86 487.986C1200.07 479.453 1189.43 467.559 1181.93 452.304C1174.52 436.962 1170.81 419.121 1170.81 398.781C1170.81 378.44 1174.52 360.513 1181.93 344.999C1189.43 329.399 1199.86 317.246 1213.22 308.541C1226.66 299.75 1242.35 295.355 1260.27 295.355C1270.62 295.355 1280.83 297.078 1290.91 300.526C1301 303.973 1310.18 309.576 1318.45 317.333C1326.73 325.003 1333.32 335.174 1338.23 347.843C1343.14 360.513 1345.6 376.113 1345.6 394.644V407.572H1192.53V381.198H1314.57C1314.57 369.994 1312.33 359.996 1307.85 351.205C1303.45 342.414 1297.16 335.475 1288.97 330.39C1280.87 325.305 1271.31 322.763 1260.27 322.763C1248.12 322.763 1237.61 325.779 1228.73 331.812C1219.94 337.759 1213.17 345.516 1208.43 355.083C1203.69 364.65 1201.32 374.907 1201.32 385.853V403.435C1201.32 418.432 1203.91 431.145 1209.08 441.573C1214.34 451.916 1221.62 459.802 1230.93 465.232C1240.24 470.576 1251.05 473.248 1263.38 473.248C1271.39 473.248 1278.63 472.127 1285.1 469.886C1291.65 467.559 1297.29 464.112 1302.03 459.544C1306.77 454.89 1310.44 449.115 1313.02 442.22L1342.5 450.494C1339.4 460.492 1334.18 469.283 1326.85 476.868C1319.53 484.366 1310.48 490.227 1299.71 494.45C1288.93 498.587 1276.82 500.656 1263.38 500.656ZM1463.36 500.656C1446.81 500.656 1432.2 496.475 1419.53 488.115C1406.86 479.669 1396.95 467.775 1389.79 452.433C1382.64 437.005 1379.06 418.777 1379.06 397.747C1379.06 376.889 1382.64 358.789 1389.79 343.448C1396.95 328.106 1406.9 316.255 1419.66 307.895C1432.42 299.535 1447.15 295.355 1463.87 295.355C1476.8 295.355 1487.02 297.509 1494.51 301.819C1502.1 306.042 1507.87 310.869 1511.84 316.298C1515.89 321.642 1519.03 326.038 1521.28 329.485H1523.86V231.748H1554.37V496.519H1524.9V466.008H1521.28C1519.03 469.628 1515.85 474.196 1511.71 479.712C1507.57 485.142 1501.67 490.011 1494 494.321C1486.33 498.544 1476.11 500.656 1463.36 500.656ZM1467.49 473.248C1479.73 473.248 1490.08 470.059 1498.52 463.681C1506.97 457.217 1513.39 448.296 1517.78 436.919C1522.18 425.456 1524.38 412.226 1524.38 397.229C1524.38 382.405 1522.22 369.434 1517.91 358.315C1513.6 347.111 1507.23 338.406 1498.78 332.2C1490.33 325.908 1479.9 322.763 1467.49 322.763C1454.57 322.763 1443.79 326.081 1435.17 332.717C1426.64 339.268 1420.22 348.188 1415.91 359.479C1411.69 370.683 1409.58 383.267 1409.58 397.229C1409.58 411.364 1411.73 424.206 1416.04 435.756C1420.43 447.219 1426.9 456.355 1435.43 463.164C1444.05 469.886 1454.74 473.248 1467.49 473.248ZM1713.74 496.519V231.748H1744.25V329.485H1746.83C1749.07 326.038 1752.18 321.642 1756.14 316.298C1760.19 310.869 1765.97 306.042 1773.46 301.819C1781.05 297.509 1791.31 295.355 1804.23 295.355C1820.95 295.355 1835.69 299.535 1848.45 307.895C1861.2 316.255 1871.16 328.106 1878.31 343.448C1885.47 358.789 1889.04 376.889 1889.04 397.747C1889.04 418.777 1885.47 437.005 1878.31 452.433C1871.16 467.775 1861.25 479.669 1848.58 488.115C1835.91 496.475 1821.3 500.656 1804.75 500.656C1792 500.656 1781.78 498.544 1774.11 494.321C1766.44 490.011 1760.54 485.142 1756.4 479.712C1752.26 474.196 1749.07 469.628 1746.83 466.008H1743.21V496.519H1713.74ZM1743.73 397.229C1743.73 412.226 1745.93 425.456 1750.32 436.919C1754.72 448.296 1761.14 457.217 1769.59 463.681C1778.03 470.059 1788.38 473.248 1800.61 473.248C1813.37 473.248 1824.01 469.886 1832.55 463.164C1841.17 456.355 1847.63 447.219 1851.94 435.756C1856.33 424.206 1858.53 411.364 1858.53 397.229C1858.53 383.267 1856.38 370.683 1852.07 359.479C1847.85 348.188 1841.42 339.268 1832.81 332.717C1824.27 326.081 1813.54 322.763 1800.61 322.763C1788.2 322.763 1777.77 325.908 1769.33 332.2C1760.88 338.406 1754.5 347.111 1750.19 358.315C1745.88 369.434 1743.73 382.405 1743.73 397.229ZM1944.61 570.985C1939.44 570.985 1934.83 570.554 1930.78 569.693C1926.73 568.917 1923.93 568.141 1922.38 567.365L1930.13 540.475C1937.55 542.371 1944.1 543.06 1949.79 542.543C1955.47 542.026 1960.52 539.484 1964.91 534.916C1969.39 530.434 1973.49 523.151 1977.19 513.067L1982.88 497.553L1909.45 297.94H1942.55L1997.36 456.182H1999.43L2054.25 297.94H2087.34L2003.05 525.478C1999.26 535.734 1994.56 544.224 1988.96 550.947C1983.36 557.755 1976.85 562.798 1969.44 566.073C1962.11 569.348 1953.84 570.985 1944.61 570.985Z" fill="black"/>
<path fill-rule="evenodd" clip-rule="evenodd" d="M3240.06 212.534H3243.39H3278.26H3281.6V215.869V392.475V434.814V487.115V490.451H3278.26H3243.39H3240.06V487.115V215.869V212.534ZM2562.25 452.671V306.797H2606.46V268.883H2558.65C2561.47 265.369 2563.72 261.438 2565.32 257.231C2568.32 249.604 2569.93 239.842 2569.77 226.722V212.535H2529.74V227.211C2530.01 235.541 2528.33 243.818 2524.83 251.383C2519.6 262.101 2508.46 273.953 2484.25 279.646L2481.67 280.268V306.797H2520.31V462.633C2520.34 470.006 2523.28 477.07 2528.49 482.286C2533.7 487.501 2540.76 490.445 2548.13 490.474H2607.11V452.671H2562.28H2562.25ZM2903.36 305.685C2919.5 282.647 2940.94 269.172 2966.87 269.172H2987.59V309.465H2962.31C2944.61 309.465 2930.38 315.225 2920.3 327.366C2910.23 339.507 2904.2 358.453 2904.2 385.426V490.474H2861.82V269.172H2903.36V305.685ZM3807.63 269.172H3848.17L3852.97 269.327L3851.22 273.775L3745.37 548.178L3742.79 547.178L3743.1 547.311L3745.32 548.178C3742.33 555.28 3737.35 561.367 3730.98 565.706C3724.61 570.045 3717.12 572.452 3709.41 572.639H3662.49V535.236H3707.97L3727 487.093L3644.03 273.619L3642.28 269.172H3688.98L3689.78 271.396L3748.15 434.436L3806.85 271.396L3807.63 269.172ZM2777.62 269.172H2780.95H2819.56V490.54H2779.69V463.233C2763.94 485.159 2740.79 495.521 2712.44 495.521C2683.58 495.521 2663.85 487.071 2651.76 472.35C2639.66 457.63 2635.21 437.083 2635.21 413.712V269.172H2677.17V417.781C2677.17 430.145 2681.07 440.04 2687.87 446.822C2694.68 453.605 2704.66 457.63 2717.42 457.63C2738.01 457.63 2752.87 450.803 2762.72 439.595C2772.57 428.388 2777.62 412.444 2777.62 393.698V269.172ZM3536.17 264.19C3504.8 264.19 3478.94 275.753 3460.97 296.211C3443 316.669 3433.2 345.577 3433.2 380.022C3433.2 414.467 3443.36 443.575 3461.61 463.833C3479.87 484.091 3506.09 495.454 3537.42 495.454C3562.35 495.454 3583.76 488.293 3600.51 475.107C3617.25 461.92 3629.1 442.908 3635.28 419.515L3636.4 415.312H3593.19L3592.39 417.535C3582.87 443.753 3563.28 458.096 3537.42 458.096C3518.83 458.096 3504.51 451.113 3494.32 439.417C3484.7 428.298 3478.65 412.866 3476.42 394.609H3636.71L3637.04 391.652C3637.4 387.801 3637.54 383.933 3637.46 380.066C3637.46 345.666 3628.08 316.691 3610.58 296.278C3593.08 275.864 3567.55 264.19 3536.17 264.19ZM3477.89 356.339C3480.85 340.774 3486.99 327.276 3496.08 317.67C3501.23 312.276 3507.45 308.02 3514.35 305.179C3521.24 302.337 3528.65 300.971 3536.11 301.17C3543.2 300.993 3550.26 302.274 3556.83 304.932C3563.41 307.59 3569.38 311.57 3574.36 316.624C3583.47 325.942 3589.92 339.395 3593.12 356.339H3477.89ZM3125.01 264.19C3096.66 264.19 3073.51 274.552 3057.77 296.478V269.171H3017.9V490.473H3059.84V365.946C3059.84 347.2 3064.88 331.256 3074.73 320.027C3084.59 308.797 3099.44 302.015 3120.03 302.015C3132.8 302.015 3142.78 306.04 3149.58 312.822C3156.39 319.604 3160.28 329.5 3160.28 341.863V490.495H3202.24V345.955C3202.24 322.606 3197.79 302.059 3185.7 287.339C3173.6 272.618 3153.88 264.19 3125.01 264.19ZM3445.73 269.742L3335.58 379.951L3445.65 490.1L3390.07 489.982L3309.65 409.524C3301.81 401.682 3297.41 391.048 3297.41 379.961C3297.41 368.873 3301.81 358.239 3309.65 350.397L3390.26 269.742H3445.73Z" fill="black"/>
<g clip-path="url(#clip0_275_1395)">
<path d="M2304.72 340.307L2377.86 500.694H2214.7L2287.84 340.307C2288.58 338.69 2289.77 337.32 2291.26 336.359C2292.76 335.398 2294.5 334.888 2296.28 334.888C2298.06 334.888 2299.8 335.398 2301.29 336.359C2302.79 337.32 2303.98 338.69 2304.72 340.307V340.307Z" fill="black"/>
<path d="M2296.26 315.448C2324.64 315.448 2347.65 292.409 2347.65 263.99C2347.65 235.571 2324.64 212.533 2296.26 212.533C2267.89 212.533 2244.88 235.571 2244.88 263.99C2244.88 292.409 2267.89 315.448 2296.26 315.448Z" fill="black"/>
</g>
<rect x="15.1692" y="15.3347" width="4004.66" height="697.782" rx="75.8459" stroke="black" stroke-width="30.3384"/>
<defs>
<clipPath id="clip0_275_1395">
<rect width="163.15" height="288.16" fill="white" transform="translate(2214.7 212.536)"/>
</clipPath>
</defs>
</svg>
